<svg width="256" height="256" viewBox="0 0 256 256" fill="none" xmlns="http://www.w3.org/2000/svg">
<style>
   @media (prefers-color-scheme: dark) {
      path {
         fill: #F9F7F4;
      }
   }
</style>
<path d="M240.742 127.972H227.625C226.403 127.972 225.424 128.959 225.391 130.181C225.27 135.416 224.712 140.562 223.781 145.571C215.479 190.915 175.698 225.361 127.996 225.361C74.3052 225.361 30.6002 181.675 30.6002 127.972C30.6002 80.8554 64.2306 41.4985 108.729 32.517C109.586 32.3471 110.404 33.0187 110.404 33.8926V49.0802C110.404 49.7194 109.967 50.2616 109.344 50.4153C72.9376 59.1702 46.1773 92.9359 48.346 132.463C50.5632 172.75 83.255 205.448 123.545 207.648C163.447 209.833 197.466 182.508 205.833 145.579C206.958 140.643 207.621 135.521 207.767 130.27C207.807 129.016 206.772 127.98 205.509 127.98H157.135C155.986 127.98 154.983 128.838 154.902 129.979C154.465 135.926 152.086 141.331 148.412 145.579C142.982 151.874 134.728 155.653 125.576 154.852C112.904 153.751 102.522 143.54 101.187 130.885C100.208 121.572 104.011 113.1 110.396 107.565C114.644 103.892 120.049 101.513 125.997 101.076C127.138 100.995 127.996 99.9835 127.996 98.8427V85.7102C127.996 84.4479 126.952 83.3961 125.69 83.4608C120.292 83.744 115.129 84.9982 110.396 87.0453C93.0868 94.5137 81.3857 112.663 83.7081 133.142C86.0305 153.654 102.66 170.153 123.197 172.305C143.233 174.409 160.938 163.17 168.593 146.388C168.82 145.894 169.297 145.579 169.84 145.579H185.74C186.679 145.579 187.375 146.509 187.076 147.399C178.271 174.077 151.867 192.833 121.668 189.839C92.5041 186.942 69.0211 163.469 66.1242 134.307C63.0573 103.422 82.7452 76.5102 110.388 68.3541C115.307 66.8976 120.462 66.0156 125.795 65.8295C127.017 65.7891 127.988 64.8181 127.988 63.5963V15.2579C127.988 14.0038 126.96 12.9761 125.706 13.0004C120.511 13.1056 115.396 13.5668 110.396 14.3193C55.297 22.8315 13 70.5549 13 127.988C13 191.409 64.6028 243 127.996 243C185.433 243 233.184 200.682 241.672 145.587C242.449 140.586 242.894 135.473 243 130.27C243.024 129.016 241.996 127.988 240.742 127.988V127.972Z" fill="black"/>
</svg>
